<svg width="32" height="32" viewBox="0 0 32 32" fill="none" xmlns="http://www.w3.org/2000/svg">
<path fill-rule="evenodd" clip-rule="evenodd" d="M13.2971 0.687536C14.9824 -0.229179 17.0175 -0.229179 18.7028 0.687536L28.473 6.00205C30.2935 6.99226 31.4267 8.89867 31.4267 10.971V21.029C31.4267 23.1013 30.2935 25.0077 28.473 25.998L18.7028 31.3125C17.0175 32.2292 14.9824 32.2292 13.2971 31.3125L3.52687 25.998C1.70645 25.0077 0.573242 23.1013 0.573242 21.029L0.573242 10.971C0.573242 8.89867 1.70645 6.99226 3.52686 6.00205L13.2971 0.687536Z" fill="#F7931A"/>
<g clip-path="url(#clip0)">
<path d="M16.0002 28.7999C23.0694 28.7999 28.8002 23.0692 28.8002 16C28.8002 8.93071 23.0694 3.19995 16.0002 3.19995C8.93095 3.19995 3.2002 8.93071 3.2002 16C3.2002 23.0692 8.93095 28.7999 16.0002 28.7999Z" fill="#F7931A"/>
<path d="M21.6262 14.416C21.8774 12.7392 20.5998 11.8376 18.8542 11.236L19.4206 8.964L18.0382 8.62L17.4862 10.832C17.123 10.7408 16.7502 10.656 16.3782 10.5712L16.9342 8.3448L15.5518 8L14.9854 10.2712C14.6846 10.2024 14.3886 10.1352 14.1022 10.0632L14.1038 10.056L12.1966 9.58L11.8286 11.0568C11.8286 11.0568 12.855 11.292 12.8334 11.3064C13.3934 11.4464 13.4942 11.8168 13.4774 12.1112L12.8326 14.6992C12.871 14.7088 12.9206 14.7232 12.9766 14.7448L12.8302 14.7088L11.9262 18.3344C11.8574 18.504 11.6838 18.7592 11.2918 18.6624C11.3062 18.6824 10.287 18.412 10.287 18.412L9.60059 19.9944L11.4006 20.4432C11.735 20.5272 12.063 20.6152 12.3854 20.6976L11.8134 22.9952L13.195 23.3392L13.7614 21.0672C14.139 21.1688 14.5054 21.2632 14.8638 21.3528L14.299 23.6152L15.6814 23.9592L16.2534 21.6664C18.6118 22.1128 20.3846 21.9328 21.131 19.8C21.7326 18.0832 21.1014 17.092 19.8606 16.4464C20.7646 16.2384 21.4446 15.644 21.6262 14.416ZM18.4662 18.8464C18.0398 20.564 15.1478 19.6352 14.2102 19.4024L14.9702 16.3584C15.9078 16.5928 18.9134 17.056 18.4662 18.8464ZM18.8942 14.3912C18.5046 15.9536 16.0982 15.1592 15.3182 14.9648L16.0062 12.2048C16.7862 12.3992 19.3006 12.7616 18.8942 14.3912Z" fill="white"/>
</g>
<defs>
<clipPath id="clip0">
<rect width="25.6" height="25.6" fill="white" transform="translate(3.2002 3.19995)"/>
</clipPath>
</defs>
</svg>
