<svg width="32" height="32" viewBox="0 0 32 32" fill="none" xmlns="http://www.w3.org/2000/svg">
<path fill-rule="evenodd" clip-rule="evenodd" d="M13.2971 0.687536C14.9824 -0.229179 17.0175 -0.229179 18.7028 0.687536L28.473 6.00205C30.2935 6.99226 31.4267 8.89867 31.4267 10.971V21.029C31.4267 23.1013 30.2935 25.0077 28.473 25.998L18.7028 31.3125C17.0175 32.2292 14.9824 32.2292 13.2971 31.3125L3.52687 25.998C1.70645 25.0077 0.573242 23.1013 0.573242 21.029L0.573242 10.971C0.573242 8.89867 1.70645 6.99226 3.52686 6.00205L13.2971 0.687536Z" fill="#627EEA"/>
<g clip-path="url(#clip0)">
<path d="M16.0002 28.7999C23.0694 28.7999 28.8002 23.0692 28.8002 16C28.8002 8.93071 23.0694 3.19995 16.0002 3.19995C8.93095 3.19995 3.2002 8.93071 3.2002 16C3.2002 23.0692 8.93095 28.7999 16.0002 28.7999Z" fill="#627EEA"/>
<path d="M16 6.3999V13.4959L21.9976 16.1759L16 6.3999Z" fill="white" fill-opacity="0.602"/>
<path d="M16.3988 6.3999L10.4004 16.1759L16.3988 13.4959V6.3999Z" fill="white"/>
<path d="M16 21.0815V25.9031L22.0016 17.5999L16 21.0815Z" fill="white" fill-opacity="0.602"/>
<path d="M16.3988 25.9031V21.0807L10.4004 17.5999L16.3988 25.9031Z" fill="white"/>
<path d="M16 19.7607L21.9976 16.2783L16 13.5999V19.7607Z" fill="white" fill-opacity="0.2"/>
<path d="M10.4004 16.2783L16.3988 19.7607V13.5999L10.4004 16.2783Z" fill="white" fill-opacity="0.602"/>
</g>
<defs>
<clipPath id="clip0">
<rect width="25.6" height="25.6" fill="white" transform="translate(3.2002 3.19995)"/>
</clipPath>
</defs>
</svg>
