<svg width="89" height="89" viewBox="0 0 89 89" fill="none" xmlns="http://www.w3.org/2000/svg">
<path fill-rule="evenodd" clip-rule="evenodd" d="M36.9825 1.91221C41.6697 -0.637403 47.3298 -0.637404 52.017 1.91221L79.1906 16.6932C84.2536 19.4472 87.4053 24.7494 87.4053 30.513V58.487C87.4053 64.2506 84.2536 69.5528 79.1906 72.3068L52.017 87.0878C47.3298 89.6374 41.6697 89.6374 36.9825 87.0878L9.809 72.3068C4.74597 69.5528 1.59424 64.2506 1.59424 58.487L1.59424 30.513C1.59424 24.7494 4.74596 19.4472 9.809 16.6932L36.9825 1.91221Z" fill="#345E9D"/>
<g clip-path="url(#clip0_1169_2350)">
<path d="M44.5004 80.1003C64.1617 80.1003 80.1004 64.1617 80.1004 44.5003C80.1004 24.839 64.1617 8.90033 44.5004 8.90033C24.8391 8.90033 8.90039 24.839 8.90039 44.5003C8.90039 64.1617 24.8391 80.1003 44.5004 80.1003Z" fill="#345E9D"/>
</g>
<path d="M43.4999 74.266C60.4915 74.266 74.2659 60.4916 74.2659 43.5C74.2659 26.5084 60.4915 12.734 43.4999 12.734C26.5083 12.734 12.7339 26.5084 12.7339 43.5C12.7339 60.4916 26.5083 74.266 43.4999 74.266Z" fill="white"/>
<path d="M43.5 9C36.6766 9 30.0063 11.0234 24.3328 14.8143C18.6593 18.6052 14.2374 23.9934 11.6262 30.2974C9.01495 36.6015 8.33173 43.5383 9.66292 50.2306C10.9941 56.923 14.2799 63.0703 19.1048 67.8952C23.9297 72.7201 30.0771 76.0059 36.7694 77.3371C43.4617 78.6683 50.3985 77.9851 56.7026 75.3738C63.0066 72.7626 68.3948 68.3407 72.1857 62.6672C75.9766 56.9937 78 50.3235 78 43.5V43.5C78.0132 38.9826 77.1365 34.5067 75.4199 30.3281C73.7033 26.1495 71.1805 22.3499 67.9955 19.1463C64.8105 15.9427 61.0257 13.3978 56.8571 11.6568C52.6886 9.91594 48.2179 9.01314 43.7005 9H43.5ZM44.0848 44.6695L40.4928 56.7821H59.7058C59.8331 56.7776 59.96 56.7983 60.0793 56.8429C60.1986 56.8875 60.3079 56.9552 60.401 57.0421C60.4941 57.129 60.5691 57.2334 60.6219 57.3493C60.6746 57.4652 60.7039 57.5904 60.7083 57.7177V58.0351L59.0375 63.799C58.9639 64.0716 58.7997 64.311 58.572 64.478C58.3443 64.645 58.0666 64.7296 57.7845 64.7179H28.3802L33.3087 47.9274L27.7954 49.5981L29.0484 45.7555L34.5618 44.0847L41.4952 20.5278C41.5715 20.2568 41.7363 20.0191 41.9634 19.8526C42.1905 19.686 42.4667 19.6003 42.7482 19.609H50.1828C50.3101 19.6045 50.437 19.6252 50.5563 19.6698C50.6756 19.7144 50.7849 19.7821 50.878 19.869C50.9711 19.9559 51.0461 20.0603 51.0988 20.1762C51.1516 20.2921 51.1809 20.4173 51.1852 20.5446V20.862L45.3378 40.7433L50.8511 39.0726L49.6816 43.0823L44.0848 44.6695Z" fill="#345D9D"/>
<defs>
<clipPath id="clip0_1169_2350">
<rect width="71.2" height="71.2" fill="white" transform="translate(8.90039 8.90033)"/>
</clipPath>
</defs>
</svg>
